<svg width="72" height="19" viewBox="0 0 72 19" fill="none" xmlns="http://www.w3.org/2000/svg">
<path d="M1.63135 8.84302L6.41288 11.215V13.0526L0 9.49931V8.13048L6.41288 4.58652V6.42413L1.63135 8.84302Z" fill="black"/>
<path d="M14.1852 8.77739L9.10367 6.3585V4.57715L15.8541 8.12111V9.48994L9.10367 13.0433V11.2432L14.1852 8.77739Z" fill="black"/>
<path d="M49.878 8.84302L54.6595 11.215V13.0526L48.2466 9.49931V8.13048L54.6595 4.58652V6.42413L49.878 8.84302Z" fill="black"/>
<path d="M57.7722 16.0528H56.3658L61.1568 1.23007H62.5537L57.7722 16.0528Z" fill="black"/>
<path d="M69.5573 8.77739L64.4757 6.3585V4.57715L71.2261 8.12111V9.48994L64.4757 13.0433V11.2432L69.5573 8.77739Z" fill="black"/>
<path d="M40.8214 2.02749C40.331 1.5369 39.7488 1.14773 39.108 0.882219C38.4672 0.616703 37.7804 0.480042 37.0868 0.480042C36.3931 0.480042 35.7063 0.616703 35.0655 0.882219C34.4247 1.14773 33.8425 1.5369 33.3522 2.02749L32.3345 3.04515L31.3168 2.02749C30.3264 1.037 28.983 0.480555 27.5822 0.480555C26.1815 0.480555 24.8381 1.037 23.8476 2.02749C22.8571 3.01797 22.3007 4.36135 22.3007 5.76211C22.3007 7.16286 22.8571 8.50625 23.8476 9.49673L24.8653 10.5144L32.3345 17.9836L39.8037 10.5144L40.8214 9.49673C41.312 9.00637 41.7011 8.42417 41.9667 7.78337C42.2322 7.14257 42.3688 6.45574 42.3688 5.76211C42.3688 5.06848 42.2322 4.38164 41.9667 3.74085C41.7011 3.10005 41.312 2.51784 40.8214 2.02749Z" fill="#D21616"/>
<path fill-rule="evenodd" clip-rule="evenodd" d="M34.8818 0.438739C35.5809 0.149085 36.3301 0 37.0868 0C37.8435 0 38.5928 0.149085 39.2918 0.438739C39.9908 0.728363 40.6259 1.15285 41.1608 1.68796C41.696 2.22289 42.1205 2.85803 42.4102 3.55708C42.6998 4.25613 42.8489 5.00541 42.8489 5.76209C42.8489 6.51878 42.6998 7.26805 42.4102 7.9671C42.1205 8.66612 41.696 9.30123 41.1609 9.83615C41.1609 9.83617 41.1609 9.83612 41.1609 9.83615L32.674 18.323C32.4865 18.5105 32.1826 18.5105 31.9951 18.323L23.5082 9.83615C22.4277 8.75564 21.8207 7.29016 21.8207 5.76209C21.8207 4.23403 22.4277 2.76855 23.5082 1.68804C24.5887 0.607535 26.0542 0.000513412 27.5823 0.000513412C29.1103 0.000513412 30.5758 0.607535 31.6563 1.68804L32.3345 2.36627L33.0127 1.68812C33.5476 1.15294 34.1828 0.728392 34.8818 0.438739ZM40.4819 2.36682C40.0362 1.92084 39.5069 1.56705 38.9243 1.32567C38.3418 1.08429 37.7174 0.960057 37.0868 0.960057C36.4563 0.960057 35.8319 1.08429 35.2493 1.32567C34.6668 1.56705 34.1375 1.92084 33.6917 2.36682L32.674 3.38456C32.4865 3.57203 32.1826 3.57203 31.9951 3.38456L30.9775 2.3669C30.077 1.46644 28.8557 0.96057 27.5823 0.96057C26.3088 0.96057 25.0875 1.46644 24.1871 2.3669C23.2866 3.26736 22.7807 4.48865 22.7807 5.76209C22.7807 7.03554 23.2866 8.25682 24.1871 9.15728L32.3345 17.3048L40.482 9.15728C40.928 8.71151 41.2819 8.18215 41.5232 7.5996C41.7646 7.01706 41.8889 6.39266 41.8889 5.76209C41.8889 5.13152 41.7646 4.50713 41.5232 3.92458C41.2819 3.34204 40.9279 2.8126 40.4819 2.36682Z" fill="#D21616"/>
</svg>
