<svg width="229" height="50" viewBox="0 0 229 50" fill="none" xmlns="http://www.w3.org/2000/svg">
<path d="M18.125 22.6738H5.63281V39H0.986328V2.03125H20.2324V6.04297H5.63281V18.6875H18.125V22.6738ZM30.1855 39H25.6914V0H30.1855V39ZM47.0957 39.5078C43.6764 39.5078 41.0527 38.4922 39.2246 36.4609C37.3965 34.4128 36.4655 31.4167 36.4316 27.4727V24.1465C36.4316 20.0501 37.3203 16.8424 39.0977 14.5234C40.8919 12.1875 43.3887 11.0195 46.5879 11.0195C49.804 11.0195 52.2077 12.0436 53.7988 14.0918C55.39 16.14 56.2025 19.3307 56.2363 23.6641V26.6094H40.9004V27.2441C40.9004 30.1895 41.4505 32.3307 42.5508 33.668C43.668 35.0052 45.2676 35.6738 47.3496 35.6738C48.6699 35.6738 49.8294 35.4284 50.8281 34.9375C51.8438 34.4297 52.7917 33.6341 53.6719 32.5508L56.0078 35.3945C54.0612 38.1367 51.0905 39.5078 47.0957 39.5078ZM46.5879 14.8789C44.7259 14.8789 43.3464 15.5221 42.4492 16.8086C41.5521 18.0781 41.0443 20.0586 40.9258 22.75H51.7422V22.1406C51.6237 19.5339 51.1497 17.6719 50.3203 16.5547C49.5078 15.4375 48.2637 14.8789 46.5879 14.8789ZM69.5918 21.5566L74.2891 11.5273H79.4941L72.0293 25.1113L79.6719 39H74.5176L69.668 28.7168L64.793 39H59.6133L67.2559 25.1113L59.8164 11.5273H64.9707L69.5918 21.5566Z" fill="#EF7D14"/>
<path d="M110.141 23.8418C110.141 28.8014 108.964 32.6523 106.611 35.3945C104.275 38.1367 101.025 39.5078 96.8613 39.5078C92.7142 39.5078 89.4557 38.1536 87.0859 35.4453C84.7161 32.7201 83.5143 28.9115 83.4805 24.0195V17.6973C83.4805 12.6191 84.6569 8.6582 87.0098 5.81445C89.3626 2.95378 92.6296 1.52344 96.8105 1.52344C100.924 1.52344 104.165 2.92839 106.535 5.73828C108.905 8.53125 110.107 12.4583 110.141 17.5195V23.8418ZM102.65 17.6465C102.65 14.3118 102.176 11.832 101.229 10.207C100.281 8.58203 98.8079 7.76953 96.8105 7.76953C94.8301 7.76953 93.3659 8.55664 92.418 10.1309C91.4701 11.6882 90.9792 14.0664 90.9453 17.2656V23.8418C90.9453 27.0749 91.4277 29.4616 92.3926 31.002C93.3574 32.5254 94.847 33.2871 96.8613 33.2871C98.8079 33.2871 100.255 32.5423 101.203 31.0527C102.151 29.5462 102.633 27.2188 102.65 24.0703V17.6465ZM128.701 18.459L126.314 18.2559C124.351 18.2559 123.022 19.1191 122.328 20.8457V39H115.117V11.5273H121.896L122.1 14.498C123.234 12.179 124.799 11.0195 126.797 11.0195C127.609 11.0195 128.27 11.1296 128.777 11.3496L128.701 18.459ZM144.697 39C144.494 38.5768 144.291 37.8659 144.088 36.8672C142.801 38.6276 141.058 39.5078 138.857 39.5078C136.555 39.5078 134.643 38.7461 133.119 37.2227C131.613 35.6992 130.859 33.7272 130.859 31.3066C130.859 28.429 131.773 26.2031 133.602 24.6289C135.447 23.0547 138.096 22.2507 141.549 22.2168H143.732V20.0078C143.732 18.7721 143.521 17.9004 143.098 17.3926C142.674 16.8848 142.057 16.6309 141.244 16.6309C139.45 16.6309 138.553 17.6803 138.553 19.7793H131.367C131.367 17.2402 132.315 15.1497 134.211 13.5078C136.124 11.849 138.536 11.0195 141.447 11.0195C144.46 11.0195 146.788 11.8066 148.43 13.3809C150.089 14.9382 150.918 17.1725 150.918 20.084V33.0078C150.952 35.3776 151.29 37.2311 151.934 38.5684V39H144.697ZM140.457 33.8711C141.253 33.8711 141.93 33.7103 142.488 33.3887C143.047 33.0671 143.462 32.6862 143.732 32.2461V26.5332H142.006C140.787 26.5332 139.822 26.9225 139.111 27.7012C138.417 28.4798 138.07 29.5208 138.07 30.8242C138.07 32.8555 138.866 33.8711 140.457 33.8711ZM162.699 11.5273L162.902 14.2441C164.527 12.0944 166.652 11.0195 169.275 11.0195C173.998 11.0195 176.427 14.3288 176.562 20.9473V39H169.352V21.4805C169.352 19.9232 169.115 18.7975 168.641 18.1035C168.184 17.3926 167.371 17.0371 166.203 17.0371C164.9 17.0371 163.884 17.7057 163.156 19.043V39H155.945V11.5273H162.699ZM180.854 24.4258C180.854 19.9232 181.666 16.5632 183.291 14.3457C184.916 12.1283 187.193 11.0195 190.121 11.0195C192.609 11.0195 194.531 12.0013 195.885 13.9648L196.164 11.5273H202.639V39C202.639 42.5039 201.657 45.1784 199.693 47.0234C197.73 48.8854 194.911 49.8164 191.238 49.8164C189.732 49.8164 188.149 49.5117 186.49 48.9023C184.831 48.3099 183.596 47.5482 182.783 46.6172L185.195 41.6406C185.872 42.3516 186.753 42.9271 187.836 43.3672C188.919 43.8242 189.943 44.0527 190.908 44.0527C192.516 44.0527 193.667 43.6634 194.361 42.8848C195.072 42.123 195.436 40.8874 195.453 39.1777V36.8164C194.082 38.6107 192.296 39.5078 190.096 39.5078C187.167 39.5078 184.899 38.3737 183.291 36.1055C181.7 33.8203 180.887 30.6042 180.854 26.457V24.4258ZM188.039 26.2285C188.039 28.7676 188.369 30.6211 189.029 31.7891C189.689 32.9401 190.739 33.5156 192.178 33.5156C193.65 33.5156 194.742 32.9824 195.453 31.916V18.7891C194.708 17.6211 193.633 17.0371 192.229 17.0371C190.807 17.0371 189.749 17.6211 189.055 18.7891C188.378 19.957 188.039 21.8359 188.039 24.4258V26.2285ZM218.965 39.5078C215.275 39.5078 212.397 38.4076 210.332 36.207C208.267 34.0065 207.234 30.8581 207.234 26.7617V24.5781C207.234 20.2448 208.182 16.9017 210.078 14.5488C211.974 12.196 214.691 11.0195 218.229 11.0195C221.682 11.0195 224.28 12.1283 226.023 14.3457C227.767 16.5462 228.656 19.8132 228.689 24.1465V27.6758H214.395C214.496 29.707 214.945 31.1966 215.74 32.1445C216.536 33.0755 217.763 33.541 219.422 33.541C221.826 33.541 223.831 32.7201 225.439 31.0781L228.258 35.4199C227.378 36.6387 226.1 37.6289 224.424 38.3906C222.748 39.1354 220.928 39.5078 218.965 39.5078ZM214.445 22.6484H221.631V21.9883C221.597 20.3464 221.326 19.1022 220.818 18.2559C220.311 17.4095 219.43 16.9863 218.178 16.9863C216.925 16.9863 216.011 17.4349 215.436 18.332C214.877 19.2292 214.547 20.668 214.445 22.6484Z" fill="#222222"/>
</svg>
